<mxfile host="app.diagrams.net" agent="Mozilla/5.0 (Windows NT 10.0; Win64; x64) AppleWebKit/537.36 (KHTML, like Gecko) Chrome/135.0.0.0 Safari/537.36" version="26.2.14">
  <diagram name="Page-1" id="_bv_xOM2ZyHQN_baZANA">
    <mxGraphModel dx="1287" dy="1764" grid="1" gridSize="10" guides="1" tooltips="1" connect="1" arrows="1" fold="1" page="1" pageScale="1" pageWidth="850" pageHeight="1100" math="0" shadow="0">
      <root>
        <mxCell id="0" />
        <mxCell id="1" parent="0" />
        <mxCell id="2" value="Data Center NTT" style="whiteSpace=wrap;strokeWidth=2;" parent="1" vertex="1">
          <mxGeometry x="200" y="8" width="180" height="54" as="geometry" />
        </mxCell>
        <mxCell id="pWrskdpxVnY6q3o96ydb-21" style="edgeStyle=orthogonalEdgeStyle;rounded=0;orthogonalLoop=1;jettySize=auto;html=1;entryX=0;entryY=0.5;entryDx=0;entryDy=0;" edge="1" parent="1" source="3" target="9">
          <mxGeometry relative="1" as="geometry" />
        </mxCell>
        <mxCell id="3" value="ODS" style="whiteSpace=wrap;strokeWidth=2;" parent="1" vertex="1">
          <mxGeometry x="320" y="290" width="160" height="54" as="geometry" />
        </mxCell>
        <mxCell id="4" value="EDW OFSAA" style="whiteSpace=wrap;strokeWidth=2;" parent="1" vertex="1">
          <mxGeometry x="320" y="166" width="155" height="54" as="geometry" />
        </mxCell>
        <mxCell id="pWrskdpxVnY6q3o96ydb-22" style="edgeStyle=orthogonalEdgeStyle;rounded=0;orthogonalLoop=1;jettySize=auto;html=1;entryX=0;entryY=0.5;entryDx=0;entryDy=0;" edge="1" parent="1" source="5" target="3">
          <mxGeometry relative="1" as="geometry" />
        </mxCell>
        <mxCell id="5" value="Zena" style="whiteSpace=wrap;strokeWidth=2;movable=1;resizable=1;rotatable=1;deletable=1;editable=1;locked=0;connectable=1;" parent="1" vertex="1">
          <mxGeometry x="80" y="210" width="140" height="54" as="geometry" />
        </mxCell>
        <mxCell id="6" value="Data Center PJDC" style="whiteSpace=wrap;strokeWidth=2;" parent="1" vertex="1">
          <mxGeometry x="940" y="8" width="187" height="54" as="geometry" />
        </mxCell>
        <mxCell id="7" value="Teradata" style="whiteSpace=wrap;strokeWidth=2;" parent="1" vertex="1">
          <mxGeometry x="800" y="220" width="155" height="54" as="geometry" />
        </mxCell>
        <mxCell id="8" value="BDA Hadoop" style="whiteSpace=wrap;strokeWidth=2;" parent="1" vertex="1">
          <mxGeometry x="800" y="112" width="155" height="54" as="geometry" />
        </mxCell>
        <mxCell id="9" value="Informatica" style="whiteSpace=wrap;strokeWidth=2;" parent="1" vertex="1">
          <mxGeometry x="800" y="310" width="155" height="54" as="geometry" />
        </mxCell>
        <mxCell id="10" value="OBIEE/OAS" style="whiteSpace=wrap;strokeWidth=2;" parent="1" vertex="1">
          <mxGeometry x="1010" y="230" width="155" height="54" as="geometry" />
        </mxCell>
        <mxCell id="11" value="ODI" style="whiteSpace=wrap;strokeWidth=2;" parent="1" vertex="1">
          <mxGeometry x="1010" y="112" width="155" height="54" as="geometry" />
        </mxCell>
        <mxCell id="pWrskdpxVnY6q3o96ydb-23" value="" style="endArrow=none;html=1;rounded=0;" edge="1" parent="1">
          <mxGeometry width="50" height="50" relative="1" as="geometry">
            <mxPoint x="680" y="470" as="sourcePoint" />
            <mxPoint x="680" y="-20" as="targetPoint" />
          </mxGeometry>
        </mxCell>
      </root>
    </mxGraphModel>
  </diagram>
</mxfile>
